<svg width="25" height="24" viewBox="0 0 25 24" fill="none" xmlns="http://www.w3.org/2000/svg">
<path fill-rule="evenodd" clip-rule="evenodd" d="M12.3333 3C7.36476 3 3.33331 7.03145 3.33331 12C3.33331 16.9686 7.36476 21 12.3333 21C17.2921 21 21.3333 16.9686 21.3333 12C21.3333 7.03145 17.2921 3 12.3333 3ZM18.278 7.14859C19.3517 8.45662 19.996 10.1258 20.0155 11.9317C19.7617 11.8829 17.2237 11.3655 14.6663 11.6876C14.6077 11.5607 14.5589 11.4241 14.5003 11.2874C14.3441 10.9165 14.1685 10.5358 13.9927 10.1746C16.8235 9.0228 18.112 7.36334 18.278 7.14859ZM12.3333 4.32755C14.2856 4.32755 16.0719 5.05966 17.4288 6.26031C17.2921 6.45553 16.1305 8.00759 13.3973 9.03253C12.1381 6.71909 10.7422 4.82538 10.5275 4.53254C11.1033 4.39588 11.7086 4.32755 12.3333 4.32755ZM9.06327 5.04989C9.26825 5.32321 10.6348 7.22668 11.9136 9.49131C8.32138 10.448 5.14893 10.4284 4.80728 10.4284C5.30511 8.04664 6.91574 6.06507 9.06327 5.04989ZM4.64134 12.0098C4.64134 11.9317 4.64134 11.8536 4.64134 11.7755C4.97322 11.7852 8.70207 11.8341 12.5383 10.6822C12.7628 11.1117 12.9678 11.551 13.163 11.9902C13.0654 12.0195 12.958 12.0488 12.8604 12.0781C8.8973 13.3568 6.78884 16.8514 6.61314 17.1442C5.39296 15.7874 4.64134 13.9816 4.64134 12.0098ZM12.3333 19.692C10.5567 19.692 8.91683 19.0868 7.61856 18.0716C7.75522 17.7885 9.31702 14.782 13.6511 13.269C13.6706 13.2592 13.6804 13.2592 13.6999 13.2495C14.7834 16.051 15.2227 18.4034 15.3398 19.077C14.4125 19.4772 13.3973 19.692 12.3333 19.692ZM16.6185 18.3742C16.5405 17.9056 16.1305 15.6605 15.125 12.898C17.5361 12.5173 19.6446 13.1421 19.9082 13.23C19.5763 15.3677 18.3463 17.2126 16.6185 18.3742Z" fill="black"/>
</svg>
