<svg width="10" height="18" viewBox="0 0 10 18" fill="none" xmlns="http://www.w3.org/2000/svg">
<path d="M9.5 3H6.5C5.9477 3 5.5 3.44772 5.5 4V7H9.5C9.6137 6.99748 9.7216 7.0504 9.7892 7.1419C9.8568 7.2334 9.8758 7.352 9.84 7.46L9.1 9.66C9.0318 9.8619 8.8431 9.9984 8.63 10H5.5V17.5C5.5 17.7761 5.2761 18 5 18H2.5C2.22386 18 2 17.7761 2 17.5V10H0.5C0.22386 10 0 9.7761 0 9.5V7.5C0 7.2239 0.22386 7 0.5 7H2V4C2 1.79086 3.7909 0 6 0H9.5C9.7761 0 10 0.22386 10 0.5V2.5C10 2.77614 9.7761 3 9.5 3Z" fill="black"/>
</svg>
