<svg width="25" height="24" viewBox="0 0 25 24" fill="none" xmlns="http://www.w3.org/2000/svg">
<path fill-rule="evenodd" clip-rule="evenodd" d="M5.33331 3H19.3333C20.4379 3 21.3333 3.89543 21.3333 5V19C21.3333 20.1046 20.4379 21 19.3333 21H5.33331C4.22874 21 3.33331 20.1046 3.33331 19V5C3.33331 3.89543 4.22874 3 5.33331 3ZM8.33331 18C8.60945 18 8.83331 17.7761 8.83331 17.5V10.5C8.83331 10.2239 8.60945 10 8.33331 10H6.83331C6.55717 10 6.33331 10.2239 6.33331 10.5V17.5C6.33331 17.7761 6.55717 18 6.83331 18H8.33331ZM7.58331 9C6.75488 9 6.08331 8.32843 6.08331 7.5C6.08331 6.67157 6.75488 6 7.58331 6C8.41174 6 9.08331 6.67157 9.08331 7.5C9.08331 8.32843 8.41174 9 7.58331 9ZM17.8333 18C18.1094 18 18.3333 17.7761 18.3333 17.5V12.9C18.3658 11.3108 17.1909 9.95452 15.6133 9.76C14.5103 9.65925 13.4416 10.1744 12.8333 11.1V10.5C12.8333 10.2239 12.6094 10 12.3333 10H10.8333C10.5572 10 10.3333 10.2239 10.3333 10.5V17.5C10.3333 17.7761 10.5572 18 10.8333 18H12.3333C12.6094 18 12.8333 17.7761 12.8333 17.5V13.75C12.8333 12.9216 13.5049 12.25 14.3333 12.25C15.1617 12.25 15.8333 12.9216 15.8333 13.75V17.5C15.8333 17.7761 16.0572 18 16.3333 18H17.8333Z" fill="black"/>
</svg>
