<svg width="116" height="19" viewBox="0 0 116 19" fill="none" xmlns="http://www.w3.org/2000/svg">
<g clip-path="url(#clip0_1019_281)">
<path d="M9.07088 0.612343C9.41462 -0.204115 10.5854 -0.204114 10.9291 0.612346L12.9579 5.43123C13.1029 5.77543 13.4306 6.01061 13.8067 6.0404L19.0727 6.45748C19.9649 6.52814 20.3267 7.62813 19.6469 8.2034L15.6348 11.5987C15.3482 11.8412 15.223 12.2218 15.3106 12.5843L16.5363 17.661C16.744 18.5211 15.7969 19.201 15.033 18.7401L10.5245 16.0196C10.2025 15.8252 9.7975 15.8252 9.47548 16.0196L4.96699 18.7401C4.20311 19.201 3.25596 18.5211 3.46363 17.661L4.68942 12.5843C4.77698 12.2218 4.65182 11.8412 4.36526 11.5987L0.353062 8.2034C-0.326718 7.62813 0.0350679 6.52814 0.927291 6.45748L6.19336 6.0404C6.5695 6.01061 6.89716 5.77543 7.04207 5.43123L9.07088 0.612343Z" fill="black"/>
<path d="M33.0708 0.612343C33.4146 -0.204115 34.5853 -0.204114 34.9291 0.612346L36.9578 5.43123C37.1028 5.77543 37.4305 6.01061 37.8066 6.0404L43.0726 6.45748C43.9648 6.52814 44.3266 7.62813 43.6468 8.2034L39.6347 11.5987C39.3482 11.8412 39.2229 12.2218 39.3105 12.5843L40.5363 17.661C40.7439 18.5211 39.7968 19.201 39.0329 18.7401L34.5245 16.0196C34.2024 15.8252 33.7974 15.8252 33.4754 16.0196L28.9669 18.7401C28.2031 19.201 27.2559 18.5211 27.4636 17.661L28.6894 12.5843C28.7769 12.2218 28.6518 11.8412 28.3652 11.5987L24.353 8.2034C23.6732 7.62813 24.035 6.52814 24.9272 6.45748L30.1933 6.0404C30.5694 6.01061 30.8971 5.77543 31.042 5.43123L33.0708 0.612343Z" fill="black"/>
<path d="M57.0708 0.612343C57.4145 -0.204115 58.5853 -0.204114 58.929 0.612346L60.9578 5.43123C61.1028 5.77543 61.4304 6.01061 61.8065 6.0404L67.0725 6.45748C67.9648 6.52814 68.3265 7.62813 67.6468 8.2034L63.6347 11.5987C63.3481 11.8412 63.2229 12.2218 63.3104 12.5843L64.5362 17.661C64.7439 18.5211 63.7968 19.201 63.0329 18.7401L58.5244 16.0196C58.2024 15.8252 57.7974 15.8252 57.4754 16.0196L52.9669 18.7401C52.203 19.201 51.2558 18.5211 51.4635 17.661L52.6893 12.5843C52.7769 12.2218 52.6517 11.8412 52.3651 11.5987L48.3529 8.2034C47.6732 7.62813 48.0349 6.52814 48.9272 6.45748L54.1932 6.0404C54.5694 6.01061 54.897 5.77543 55.0419 5.43123L57.0708 0.612343Z" fill="black"/>
<path d="M81.0708 0.612343C81.4145 -0.204115 82.5853 -0.204114 82.929 0.612346L84.9578 5.43123C85.1028 5.77543 85.4304 6.01061 85.8065 6.0404L91.0725 6.45748C91.9648 6.52814 92.3265 7.62813 91.6468 8.2034L87.6347 11.5987C87.3481 11.8412 87.2229 12.2218 87.3104 12.5843L88.5362 17.661C88.7439 18.5211 87.7968 19.201 87.0329 18.7401L82.5244 16.0196C82.2024 15.8252 81.7974 15.8252 81.4754 16.0196L76.9669 18.7401C76.203 19.201 75.2558 18.5211 75.4635 17.661L76.6893 12.5843C76.7769 12.2218 76.6517 11.8412 76.3651 11.5987L72.3529 8.2034C71.6732 7.62813 72.0349 6.52814 72.9272 6.45748L78.1932 6.0404C78.5694 6.01061 78.897 5.77543 79.0419 5.43123L81.0708 0.612343Z" fill="black"/>
<path d="M105.071 0.612343C105.414 -0.204115 106.585 -0.204114 106.929 0.612346L108.958 5.43123C109.103 5.77543 109.43 6.01061 109.806 6.0404L115.072 6.45748C115.965 6.52814 116.326 7.62813 115.647 8.2034L111.635 11.5987C111.348 11.8412 111.223 12.2218 111.31 12.5843L112.536 17.661C112.744 18.5211 111.797 19.201 111.033 18.7401L106.524 16.0196C106.202 15.8252 105.797 15.8252 105.475 16.0196L100.967 18.7401C100.203 19.201 99.2558 18.5211 99.4634 17.661L100.689 12.5843C100.777 12.2218 100.652 11.8412 100.365 11.5987L96.3529 8.2034C95.6731 7.62813 96.0349 6.52814 96.9271 6.45748L102.193 6.0404C102.569 6.01061 102.897 5.77543 103.042 5.43123L105.071 0.612343Z" fill="black"/>
</g>
<defs>
<clipPath id="clip0_1019_281">
<rect width="116" height="18.8889" fill="white"/>
</clipPath>
</defs>
</svg>
