<svg width="25" height="24" viewBox="0 0 25 24" fill="none" xmlns="http://www.w3.org/2000/svg">
<path d="M21.3061 6.7174C20.8417 7.33692 20.2803 7.87733 19.6436 8.31776C19.6436 8.47959 19.6436 8.64142 19.6436 8.81225C19.6487 11.7511 18.4748 14.5691 16.3851 16.6345C14.2953 18.6999 11.4645 19.8399 8.52736 19.7989C6.8293 19.8046 5.15299 19.4169 3.62974 18.6661C3.5476 18.6302 3.49462 18.549 3.49493 18.4593V18.3604C3.49493 18.2313 3.59955 18.1267 3.72859 18.1267C5.39774 18.0716 7.00733 17.4929 8.32965 16.4724C6.81884 16.4419 5.4595 15.5469 4.83391 14.1707C4.80232 14.0956 4.81215 14.0093 4.85988 13.9432C4.9076 13.8771 4.98632 13.8407 5.06757 13.8471C5.52674 13.8932 5.9905 13.8505 6.43352 13.7212C4.76571 13.375 3.51253 11.9904 3.33318 10.2957C3.32681 10.2144 3.36323 10.1357 3.42931 10.0879C3.49538 10.0402 3.58156 10.0303 3.6567 10.062C4.10426 10.2595 4.5874 10.3635 5.07655 10.3676C3.61515 9.40846 2.98392 7.58405 3.53986 5.92622C3.59725 5.76513 3.73513 5.64612 3.90281 5.61294C4.0705 5.57975 4.24328 5.63728 4.35764 5.76439C6.32971 7.86325 9.03935 9.11396 11.9152 9.25279C11.8416 8.95885 11.8054 8.65676 11.8074 8.35372C11.8343 6.76472 12.8175 5.34921 14.2967 4.76987C15.7758 4.19054 17.4582 4.56203 18.5563 5.71044C19.3047 5.56785 20.0283 5.31645 20.704 4.96421C20.7535 4.93331 20.8163 4.93331 20.8658 4.96421C20.8967 5.01373 20.8967 5.07652 20.8658 5.12604C20.5385 5.87552 19.9856 6.50412 19.2842 6.92419C19.8984 6.85296 20.5018 6.70807 21.0815 6.49264C21.1303 6.45942 21.1944 6.45942 21.2432 6.49264C21.2841 6.51134 21.3147 6.54711 21.3268 6.59042C21.3389 6.63373 21.3313 6.68018 21.3061 6.7174Z" fill="black"/>
</svg>
