<svg width="33" height="32" viewBox="0 0 33 32" fill="none" xmlns="http://www.w3.org/2000/svg">
<path d="M30 22.32V6.22672C30 4.62672 28.6933 3.44005 27.1066 3.57338H27.0266C24.2266 3.81338 19.9733 5.24005 17.6 6.73338L17.3733 6.88005C16.9866 7.12005 16.3466 7.12005 15.96 6.88005L15.6266 6.68005C13.2533 5.20005 9.01331 3.78672 6.21331 3.56005C4.62665 3.42672 3.33331 4.62671 3.33331 6.21338V22.32C3.33331 23.6 4.37331 24.8 5.65331 24.96L6.03998 25.0134C8.93331 25.4 13.4 26.8667 15.96 28.2667L16.0133 28.2934C16.3733 28.4934 16.9466 28.4934 17.2933 28.2934C19.8533 26.88 24.3333 25.4 27.24 25.0134L27.68 24.96C28.96 24.8 30 23.6 30 22.32Z" stroke="#292D32" stroke-width="1.5" stroke-linecap="round" stroke-linejoin="round"/>
<path d="M16.6666 7.31995V27.3199" stroke="#292D32" stroke-width="1.5" stroke-linecap="round" stroke-linejoin="round"/>
<path d="M10.9999 11.3199H7.99994" stroke="#292D32" stroke-width="1.5" stroke-linecap="round" stroke-linejoin="round"/>
<path d="M11.9999 15.3199H7.99994" stroke="#292D32" stroke-width="1.5" stroke-linecap="round" stroke-linejoin="round"/>
</svg>
