<svg width="33" height="32" viewBox="0 0 33 32" fill="none" xmlns="http://www.w3.org/2000/svg">
<path d="M15.7929 4.59521V4.59626C15.776 4.62534 12.2955 10.6292 7.95067 17.9595C3.59532 25.3077 0 31.1906 0 31.1906L12.3315 31.1365L12.3323 31.1364L12.3297 31.1459C18.3172 31.03 23.7182 27.0934 25.3119 21.1453C25.8102 19.286 25.8853 17.4143 25.5964 15.6255C24.8043 10.3582 20.9149 6.07448 15.7929 4.59521Z" fill="black"/>
<path d="M22.6077 0.809326V0.81037C22.5908 0.839449 19.1102 6.8433 14.7654 14.1736C10.4101 21.5218 6.81476 27.4047 6.81476 27.4047L19.1462 27.3506L19.147 27.3505L19.1445 27.36C25.132 27.2441 30.5329 23.3075 32.1267 17.3594C32.6249 15.5001 32.7001 13.6284 32.4111 11.8396C31.619 6.57236 27.7297 2.28859 22.6077 0.809326Z" fill="#10F2C5"/>
</svg>
