<svg width="101" height="100" viewBox="0 0 101 100" fill="none" xmlns="http://www.w3.org/2000/svg">
<rect x="0.666626" width="100" height="100" rx="5" fill="white"/>
<path d="M37.3333 47.3332V52.6665C37.3333 55.3332 38.6666 56.6665 41.3333 56.6665H43.24C43.7333 56.6665 44.2266 56.8132 44.6533 57.0665L48.5466 59.5065C51.9066 61.6132 54.6666 60.0799 54.6666 56.1199V43.8799C54.6666 39.9065 51.9066 38.3865 48.5466 40.4932L44.6533 42.9332C44.2266 43.1865 43.7333 43.3332 43.24 43.3332H41.3333C38.6666 43.3332 37.3333 44.6665 37.3333 47.3332Z" stroke="#292D32" stroke-width="1.5"/>
<path d="M58.6666 44.6667C61.04 47.8267 61.04 52.1734 58.6666 55.3334" stroke="#292D32" stroke-width="1.5" stroke-linecap="round" stroke-linejoin="round"/>
<path d="M61.1066 41.3333C64.96 46.4666 64.96 53.5333 61.1066 58.6666" stroke="#292D32" stroke-width="1.5" stroke-linecap="round" stroke-linejoin="round"/>
</svg>
