<svg width="32" height="32" viewBox="0 0 32 32" fill="none" xmlns="http://www.w3.org/2000/svg">
<path d="M16 25.3334C20.4133 25.3334 24 21.7467 24 17.3334V10.6667C24 6.25341 20.4133 2.66675 16 2.66675C11.5867 2.66675 8 6.25341 8 10.6667V17.3334C8 21.7467 11.5867 25.3334 16 25.3334Z" stroke="#292D32" stroke-width="1.5" stroke-linecap="round" stroke-linejoin="round"/>
<path d="M4 14.6667V17.3334C4 23.9601 9.37333 29.3334 16 29.3334C22.6267 29.3334 28 23.9601 28 17.3334V14.6667" stroke="#292D32" stroke-width="1.5" stroke-linecap="round" stroke-linejoin="round"/>
<path d="M12.1467 9.97324C14.52 9.10658 17.1067 9.10658 19.48 9.97324" stroke="#292D32" stroke-width="1.5" stroke-linecap="round" stroke-linejoin="round"/>
<path d="M13.3734 13.9733C14.9734 13.5333 16.6667 13.5333 18.2667 13.9733" stroke="#292D32" stroke-width="1.5" stroke-linecap="round" stroke-linejoin="round"/>
</svg>
