<svg width="32" height="32" viewBox="0 0 32 32" fill="none" xmlns="http://www.w3.org/2000/svg">
<path d="M14.3334 30.0001H17.6934C18.9734 30.0001 19.8 29.0934 19.56 27.9867L19.0133 25.5735H13.0133L12.4667 27.9867C12.2267 29.0267 13.1334 30.0001 14.3334 30.0001Z" stroke="#292D32" stroke-width="1.5" stroke-linecap="round" stroke-linejoin="round"/>
<path d="M19.0134 25.5602L21.3201 23.5069C22.6134 22.3602 22.6667 21.5601 21.6401 20.2668L17.5734 15.1069C16.7201 14.0269 15.3201 14.0269 14.4667 15.1069L10.4001 20.2668C9.37341 21.5601 9.3734 22.4002 10.7201 23.5069L13.0267 25.5602" stroke="#292D32" stroke-width="1.5" stroke-linecap="round" stroke-linejoin="round"/>
<path d="M16.0134 14.8269V18.2003" stroke="#292D32" stroke-width="1.5" stroke-linecap="round" stroke-linejoin="round"/>
<path d="M16.6933 6.66675H15.3599C14.6266 6.66675 14.0266 6.06675 14.0266 5.33341V4.00008C14.0266 3.26675 14.6266 2.66675 15.3599 2.66675H16.6933C17.4266 2.66675 18.0266 3.26675 18.0266 4.00008V5.33341C18.0266 6.06675 17.4266 6.66675 16.6933 6.66675Z" stroke="#292D32" stroke-width="1.5" stroke-linecap="round" stroke-linejoin="round"/>
<path d="M4.35994 18.8934H5.69328C6.42661 18.8934 7.02661 18.2934 7.02661 17.5601V16.2267C7.02661 15.4934 6.42661 14.8933 5.69328 14.8933H4.35994C3.62661 14.8933 3.02661 15.4934 3.02661 16.2267V17.5601C3.02661 18.2934 3.62661 18.8934 4.35994 18.8934Z" stroke="#292D32" stroke-width="1.5" stroke-linecap="round" stroke-linejoin="round"/>
<path d="M27.6401 18.8934H26.3067C25.5734 18.8934 24.9734 18.2934 24.9734 17.5601V16.2267C24.9734 15.4934 25.5734 14.8933 26.3067 14.8933H27.6401C28.3734 14.8933 28.9734 15.4934 28.9734 16.2267V17.5601C28.9734 18.2934 28.3734 18.8934 27.6401 18.8934Z" stroke="#292D32" stroke-width="1.5" stroke-linecap="round" stroke-linejoin="round"/>
<path d="M14.0267 4.74683C8.94667 5.34683 5 9.65347 5 14.8935" stroke="#292D32" stroke-width="1.5" stroke-linecap="round" stroke-linejoin="round"/>
<path d="M26.9999 14.8935C26.9999 9.66681 23.0799 5.37349 18.0266 4.74683" stroke="#292D32" stroke-width="1.5" stroke-linecap="round" stroke-linejoin="round"/>
</svg>
