<svg width="33" height="32" viewBox="0 0 33 32" fill="none" xmlns="http://www.w3.org/2000/svg">
<path d="M3.33331 13.3332V18.6665C3.33331 21.3332 4.66665 22.6665 7.33331 22.6665H9.23998C9.73331 22.6665 10.2266 22.8132 10.6533 23.0665L14.5466 25.5065C17.9066 27.6132 20.6666 26.0799 20.6666 22.1199V9.87988C20.6666 5.90655 17.9066 4.38655 14.5466 6.49322L10.6533 8.93321C10.2266 9.18655 9.73331 9.33322 9.23998 9.33322H7.33331C4.66665 9.33322 3.33331 10.6665 3.33331 13.3332Z" stroke="#292D32" stroke-width="1.5"/>
<path d="M24.6666 10.6667C27.04 13.8267 27.04 18.1734 24.6666 21.3334" stroke="#292D32" stroke-width="1.5" stroke-linecap="round" stroke-linejoin="round"/>
<path d="M27.1066 7.33325C30.96 12.4666 30.96 19.5333 27.1066 24.6666" stroke="#292D32" stroke-width="1.5" stroke-linecap="round" stroke-linejoin="round"/>
</svg>
